<?xml version="1.0" encoding="UTF-8" standalone="no"?><!DOCTYPE svg PUBLIC "-//W3C//DTD SVG 1.1//EN" "http://www.w3.org/Graphics/SVG/1.1/DTD/svg11.dtd"><svg width="100%" height="100%" viewBox="0 0 4000 4000" version="1.1" xmlns="http://www.w3.org/2000/svg" xmlns:xlink="http://www.w3.org/1999/xlink" xml:space="preserve" xmlns:serif="http://www.serif.com/" style="fill-rule:evenodd;clip-rule:evenodd;stroke-linejoin:round;stroke-miterlimit:2;"><path d="M2294.03,602.649l972.527,972.334l-184.859,184.859c-34.408,-2.86 -68.92,-4.292 -103.446,-4.292c-685.206,0 -1249.05,563.84 -1249.05,1249.05c0,34.527 1.432,69.038 4.291,103.446l-376.635,376.636c-53.25,53.249 -119.499,91.673 -192.161,111.453l-982.903,268.064c-12.284,3.328 -24.954,5.013 -37.68,5.013c-79.063,0 -144.121,-65.058 -144.121,-144.12c0,-12.727 1.686,-25.397 5.013,-37.681l267.872,-983.095c19.78,-72.662 58.204,-138.911 111.454,-192.161l1909.69,-1909.5Zm1362.61,-390.087c266.597,266.752 266.597,705.583 0,972.334l-186.396,186.396l-972.526,-972.334l186.396,-186.396c128.899,-128.947 303.939,-201.47 486.263,-201.47c182.325,0 357.364,72.523 486.263,201.47Zm-1297.28,2114.54c10.032,34.696 15.123,70.634 15.123,106.751c0,176.119 -121.062,330.78 -292.027,373.075l-112.222,27.671c-17.986,115.076 -17.597,232.281 1.153,347.235l103.767,24.981c172.065,41.446 294.323,196.649 294.323,373.635c-0,36.794 -5.284,73.397 -15.69,108.689l-35.934,121.446c84.551,74.174 180.632,134.32 285.167,176.98l94.928,-99.54c72.52,-76.281 173.284,-119.519 278.537,-119.519c105.252,-0 206.017,43.238 278.537,119.519l95.696,100.885c104.047,-42.304 200.35,-101.593 284.975,-175.443l-38.048,-131.822c-9.99,-34.628 -15.059,-70.488 -15.059,-106.528c0,-176.167 121.129,-330.858 292.155,-373.106l112.03,-27.671c18.007,-115.139 17.618,-232.41 -1.153,-347.427l-103.767,-24.981c-172.065,-41.446 -294.323,-196.649 -294.323,-373.635c0,-36.794 5.284,-73.397 15.69,-108.689l35.934,-121.061c-84.543,-74.551 -180.921,-134.495 -285.167,-177.365l-94.735,99.732c-72.526,76.343 -173.333,119.62 -278.634,119.62c-105.301,0 -206.107,-43.277 -278.633,-119.62l-95.696,-100.885c-104.536,42.276 -200.616,101.846 -284.975,175.251l38.048,131.822Zm618.95,965.801c-153.728,0 -278.633,-129.132 -278.633,-288.241c0,-159.302 124.905,-288.242 278.633,-288.242c153.729,0 278.634,128.94 278.634,288.242c-0,159.109 -124.905,288.241 -278.634,288.241Z" style="fill:#0059bc;fill-rule:nonzero;"/></svg>